<?xml version="1.0" standalone="no"?>
<!DOCTYPE svg PUBLIC "-//W3C//DTD SVG 20010904//EN"
 "http://www.w3.org/TR/2001/REC-SVG-20010904/DTD/svg10.dtd">
<svg version="1.0" xmlns="http://www.w3.org/2000/svg"
 width="512.000000pt" height="512.000000pt" viewBox="0 0 512.000000 512.000000"
 preserveAspectRatio="xMidYMid meet">
<metadata>
Created by potrace 1.14, written by Peter Selinger 2001-2017
</metadata>
<g transform="translate(0.000000,512.000000) scale(0.100000,-0.100000)"
fill="#000000" stroke="none">
<path d="M2369 5096 c-2 -2 -35 -6 -74 -9 -179 -15 -428 -71 -600 -137 -11 -4
-47 -18 -80 -30 -82 -31 -275 -128 -371 -186 -351 -213 -666 -531 -873 -883
-58 -98 -132 -248 -169 -341 -63 -158 -131 -402 -147 -525 -4 -27 -8 -52 -10
-55 -18 -30 -27 -495 -13 -635 8 -75 46 -304 53 -315 2 -4 6 -20 9 -37 9 -50
64 -221 102 -317 228 -575 664 -1053 1211 -1330 176 -89 435 -185 571 -211 13
-2 31 -6 40 -9 17 -5 25 -7 142 -25 36 -6 81 -13 100 -17 19 -3 134 -7 255 -9
253 -4 393 9 620 59 212 46 482 152 680 266 83 48 251 158 288 190 12 10 63
52 112 93 310 258 580 643 723 1032 66 179 101 310 137 520 21 122 28 493 12
645 -34 341 -154 708 -325 1000 -42 72 -124 198 -149 230 -256 330 -512 554
-838 732 -274 150 -550 239 -910 293 -46 7 -490 17 -496 11z"/>
</g>
</svg>
