<svg xmlns="http://www.w3.org/2000/svg" width="512.5" height="498.1" viewBox="0 0 512.5 498.1"><path d="M501.5,42.5" transform="translate(0 -4)" fill="#fff" stroke="#000" stroke-miterlimit="10"/><rect x="127.5" y="0.5" width="384" height="98" rx="28"/><rect x="11" width="100" height="100" rx="5.7"/><path d="M511,247.4c.3-2.7.6-24.9,1.5-63.8s-62.1-48.5-67.6-49.9l-1.4-.2H44c-22.9,0-41.5,17.6-41.5,39.2v8.9c0,18.8,16.2,34.1,36.1,34.1l369.6,1c7.9,0,14.3,6.1,14.3,13.5h0a9,9,0,0,1-6.9,8.7l-1.2.2-54.5.8c-19.4.4-37,11.3-44.5,28.2-4.4,10-4.8,20,6.8,25l.7.3c6.2,1.8,123.7,26.7,183.5-17.5a5.2,5.2,0,0,0,2.1-4.1" transform="translate(0 -4)"/><polygon points="0 309.5 0 498.1 345 429.5 345 350.8 0 309.5"/><polygon points="367.5 354.5 367.5 430 503.3 430 500.5 354.5 367.5 354.5"/></svg>